<?xml version="1.0" standalone="no"?><!DOCTYPE svg PUBLIC "-//W3C//DTD SVG 1.1//EN" "http://www.w3.org/Graphics/SVG/1.1/DTD/svg11.dtd"><svg t="1515660711739" class="icon" style="" viewBox="0 0 1024 1024" version="1.1" xmlns="http://www.w3.org/2000/svg" p-id="8843" xmlns:xlink="http://www.w3.org/1999/xlink" width="64" height="64"><defs><style type="text/css"></style></defs><path d="M921.6 1024H102.4C45.6 1024 0 978.4 0 921.6V102.4C0 45.6 45.6 0 102.4 0h819.2c56.8 0 102.4 45.6 102.4 102.4v819.2c0 56.8-45.6 102.4-102.4 102.4z" fill="#37BF4C" p-id="8844"></path><path d="M172.8 160.8h678.4v76H172.8v-76zM792 616V316.8H232v298.4l560 0.8zM313.6 393.6H712v146.4H313.6V393.6z m357.6 393.6c24.8-37.6 47.2-80.8 68.8-129.6l-81.6-29.6c-21.6 58.4-45.6 111.2-73.6 160H442.4c-23.2-62.4-49.6-115.2-80-160l-75.2 29.6c30.4 46.4 56 89.6 75.2 129.6H153.6v75.2h716.8v-75.2H671.2z" fill="#FFFFFF" p-id="8845"></path></svg>